<svg xmlns="http://www.w3.org/2000/svg" width="180.492" height="52.374" viewBox="0 0 180.492 52.374">
  <g id="Group_192" data-name="Group 192" transform="translate(-12.137 -46)">
    <path id="Path_934" data-name="Path 934" d="M-42.335-.82A11.5,11.5,0,0,1-47.749.328a8.731,8.731,0,0,1-6.7-2.693,9.938,9.938,0,0,1-2.516-7.068,10.416,10.416,0,0,1,2.83-7.6,9.605,9.605,0,0,1,7.178-2.9,11.508,11.508,0,0,1,4.621.807v2.447a9.371,9.371,0,0,0-4.648-1.176A7.133,7.133,0,0,0-52.459-15.6a8.5,8.5,0,0,0-2.1,6.029A8.086,8.086,0,0,0-52.6-3.862a6.676,6.676,0,0,0,5.147,2.126,9.657,9.657,0,0,0,5.113-1.312ZM-32.792.328a6.494,6.494,0,0,1-4.956-1.962,7.267,7.267,0,0,1-1.853-5.2,7.57,7.57,0,0,1,1.928-5.51,6.93,6.93,0,0,1,5.209-1.982A6.279,6.279,0,0,1-27.576-12.4a7.644,7.644,0,0,1,1.757,5.346,7.521,7.521,0,0,1-1.894,5.366A6.635,6.635,0,0,1-32.792.328Zm.164-12.77a4.265,4.265,0,0,0-3.418,1.47A6.036,6.036,0,0,0-37.3-6.918a5.709,5.709,0,0,0,1.271,3.924,4.321,4.321,0,0,0,3.4,1.436,4.1,4.1,0,0,0,3.343-1.408,6.111,6.111,0,0,0,1.169-4.006,6.216,6.216,0,0,0-1.169-4.047A4.081,4.081,0,0,0-32.628-12.441ZM-2.358,0H-4.6V-8.039A6.065,6.065,0,0,0-5.318-11.4a2.722,2.722,0,0,0-2.413-1.039,2.988,2.988,0,0,0-2.44,1.313,5.021,5.021,0,0,0-1,3.145V0h-2.242V-8.312q0-4.129-3.186-4.129A2.951,2.951,0,0,0-19.038-11.2,5.115,5.115,0,0,0-20-7.984V0h-2.242V-14H-20v2.215h.055a4.756,4.756,0,0,1,4.348-2.543,4.054,4.054,0,0,1,2.5.8,4.023,4.023,0,0,1,1.463,2.1,5,5,0,0,1,4.648-2.9q4.621,0,4.621,5.7ZM8.8-18.758a2.987,2.987,0,0,0-1.49-.369q-2.352,0-2.352,2.967V-14H8.237v1.914H4.956V0H2.728V-12.086H.335V-14H2.728v-2.27A4.716,4.716,0,0,1,4-19.749a4.292,4.292,0,0,1,3.172-1.278,4.394,4.394,0,0,1,1.627.246ZM16.5.328a6.494,6.494,0,0,1-4.956-1.962,7.267,7.267,0,0,1-1.853-5.2,7.57,7.57,0,0,1,1.928-5.51,6.93,6.93,0,0,1,5.209-1.982A6.279,6.279,0,0,1,21.711-12.4a7.644,7.644,0,0,1,1.757,5.346,7.521,7.521,0,0,1-1.894,5.366A6.635,6.635,0,0,1,16.5.328Zm.164-12.77a4.265,4.265,0,0,0-3.418,1.47,6.036,6.036,0,0,0-1.258,4.054,5.709,5.709,0,0,0,1.271,3.924,4.321,4.321,0,0,0,3.4,1.436A4.1,4.1,0,0,0,20-2.967a6.111,6.111,0,0,0,1.169-4.006A6.216,6.216,0,0,0,20-11.02,4.081,4.081,0,0,0,16.659-12.441Zm17.691.711a2.742,2.742,0,0,0-1.7-.451,2.861,2.861,0,0,0-2.4,1.354,6.258,6.258,0,0,0-.964,3.691V0H27.05V-14h2.242v2.885h.055a4.889,4.889,0,0,1,1.463-2.3,3.336,3.336,0,0,1,2.2-.827,3.66,3.66,0,0,1,1.34.191ZM43.278-.137A4.323,4.323,0,0,1,41.187.3q-3.678,0-3.678-4.1v-8.285H35.1V-14h2.406v-3.418l2.242-.725V-14h3.527v1.914H39.751V-4.2a3.27,3.27,0,0,0,.479,2.01,1.91,1.91,0,0,0,1.586.6,2.357,2.357,0,0,0,1.463-.465ZM56.294,0H54.052V-2.187H54A4.694,4.694,0,0,1,49.69.328,4.6,4.6,0,0,1,46.416-.779a3.837,3.837,0,0,1-1.183-2.939q0-3.924,4.621-4.566l4.2-.588q0-3.568-2.885-3.568A6.892,6.892,0,0,0,46.6-10.719v-2.3a8.676,8.676,0,0,1,4.758-1.312q4.936,0,4.936,5.223ZM54.052-7.082l-3.377.465a5.483,5.483,0,0,0-2.352.772,2.228,2.228,0,0,0-.793,1.962,2.137,2.137,0,0,0,.731,1.675,2.826,2.826,0,0,0,1.948.649,3.6,3.6,0,0,0,2.755-1.169,4.177,4.177,0,0,0,1.087-2.96Z" transform="translate(136.335 93.214)" fill="#5068a8" opacity="0.98"/>
    <g id="Group_173" data-name="Group 173" transform="translate(-1211.5 77.061)">
      <path id="Group_153-converted" data-name="Group 153-converted" d="M43.572.111C43.028.33,17.022,15.686,16.71,15.973a2.06,2.06,0,0,0,.764,3.434,2.439,2.439,0,0,0,1.632-.154A1.19,1.19,0,0,1,19.4,19.1c.03,0,.054,1.447.054,3.216v3.216h4.186V16.586l10.227-6.019c5.625-3.311,10.263-6.034,10.306-6.051C44.24,4.489,63.424,15.7,64.5,16.4l.383.248V48.194l-8.5.026-8.5.026-.028,2.016-.028,2.016h9.809c8.831,0,9.841-.016,10.135-.165a2.147,2.147,0,0,0,1-.979c.189-.368.194-.85.194-16.208,0-8.706.018-15.829.04-15.829a4.8,4.8,0,0,1,.485.2,2.04,2.04,0,0,0,2.942-1.836,2.211,2.211,0,0,0-.62-1.493C71.569,15.749,46.472.958,45.3.344a2.05,2.05,0,0,0-1.73-.233M22.428,29.983a1.886,1.886,0,0,0-1.113,1.567,1.862,1.862,0,0,0,.5,1.686c.5.539.632.594,2.288.923A19.447,19.447,0,0,1,37.883,44.775a18.957,18.957,0,0,1,1.646,4.88c.3,1.5.382,1.715.872,2.184a1.768,1.768,0,0,0,1.423.542,1.831,1.831,0,0,0,1.535-.686c.682-.755.731-1.4.281-3.654A22.82,22.82,0,0,0,25.082,29.929c-1.651-.28-2-.273-2.654.054m.383,7.326a2.057,2.057,0,0,0-1.255,1.1,2.215,2.215,0,0,0,.362,2.6c.35.361.684.519,1.918.9a12.123,12.123,0,0,1,7.643,7.151c.172.449.408,1.143.524,1.542a2.233,2.233,0,0,0,2.471,1.755,1.812,1.812,0,0,0,1.036-.344,2.657,2.657,0,0,0,1-1.755,15.809,15.809,0,0,0-4.38-8.431,16.293,16.293,0,0,0-7.371-4.409,2.806,2.806,0,0,0-1.942-.111M22.11,45a1.888,1.888,0,0,0-.587.531c-.225.337-.232.42-.232,2.787,0,2.645.02,2.761.6,3.384.6.642.785.68,3.435.68s2.8-.028,3.228-.63c.4-.557.333-1.2-.234-2.34a9.156,9.156,0,0,0-4.028-4.043c-1.087-.539-1.664-.637-2.181-.369" transform="translate(1207.562 -31.068)" fill="#5068a8" fill-rule="evenodd"/>
    </g>
  </g>
</svg>
